<svg xmlns="http://www.w3.org/2000/svg" xmlns:xlink="http://www.w3.org/1999/xlink" id="katman_1" x="0px" y="0px" viewBox="0 0 584 368.8" style="enable-background:new 0 0 584 368.8;" xml:space="preserve"><style type="text/css">	.st0{fill:#03B2B1;}	.st1{enable-background:new    ;}</style><g>	<polygon class="st0" points="243.8,186.6 355.6,186.6 339.1,159.2 235.7,159.2 196.6,224.2 152.7,224.2 287.4,0 349.4,103.2    305.5,103.2 287.4,73.1 258.4,121.5 360.4,121.5 422.1,224.2 221.1,224.2  "></polygon></g><g class="st1">	<path class="st0" d="M5.3,356.1v-22.6h142.5c3.7,0,6.3-0.8,7.8-2.4c1.6-1.6,2.4-4.2,2.4-7.8c0-3.6-0.8-6.1-2.4-7.7   c-1.6-1.6-4.2-2.4-7.8-2.4H38c-4.5,0-8.7-0.9-12.7-2.6c-4-1.7-7.4-4.1-10.4-7c-2.9-2.9-5.3-6.4-7-10.3c-1.7-4-2.6-8.3-2.6-12.9   c0-4.5,0.9-8.7,2.6-12.7c1.7-4,4.1-7.4,7-10.3c2.9-2.9,6.4-5.3,10.4-7c4-1.7,8.2-2.6,12.7-2.6h142.7v22.6H38   c-3.6,0-6.1,0.8-7.7,2.4c-1.6,1.6-2.4,4.1-2.4,7.7c0,3.7,0.8,6.3,2.3,7.8c1.5,1.6,4.1,2.4,7.8,2.4h109.9c4.5,0,8.8,0.9,12.8,2.6   c4,1.7,7.5,4.1,10.4,7c2.9,2.9,5.3,6.4,7,10.4c1.7,4,2.6,8.2,2.6,12.7c0,4.6-0.9,8.9-2.6,12.9c-1.7,4-4.1,7.4-7,10.3   c-2.9,2.9-6.4,5.3-10.4,7c-4,1.7-8.3,2.6-12.8,2.6H5.3z"></path>	<path class="st0" d="M215.3,356.1h-22.7v-75.6c0-4.5,0.9-8.7,2.6-12.7c1.7-4,4.1-7.4,7.1-10.3c3-2.9,6.5-5.2,10.4-6.9   c4-1.7,8.2-2.5,12.7-2.5h136.6v22.4H225.3c-3.6,0-6.1,0.8-7.7,2.4c-1.6,1.6-2.4,4.1-2.4,7.7v10.2h146.6v22.6H215.3V356.1z"></path>	<path class="st0" d="M397.8,280.5v75.6h-22.4v-108h21.3l76.1,73.5l76.2-73.5h21.3v108h-22.6v-75.6l-75,72.5L397.8,280.5z"></path></g></svg>